{
	"asset":{
		"generator":"Khronos glTF Blender I/O v4.4.56",
		"version":"2.0"
	},
	"scene":0,
	"scenes":[
		{
			"name":"Scene",
			"nodes":[
				0,
				1,
				2,
				3,
				4,
				5,
				6
			]
		}
	],
	"nodes":[
		{
			"mesh":0,
			"name":"floor"
		},
		{
			"mesh":1,
			"name":"ramps"
		},
		{
			"mesh":2,
			"name":"respawnGreen",
			"scale":[
				2,
				0.10000000149011612,
				2
			],
			"translation":[
				20,
				0,
				-20
			]
		},
		{
			"mesh":3,
			"name":"respawnYellow",
			"scale":[
				2,
				0.10000000149011612,
				2
			],
			"translation":[
				20,
				0,
				9
			]
		},
		{
			"mesh":4,
			"name":"respawnBlue",
			"scale":[
				2,
				0.10000000149011612,
				2
			],
			"translation":[
				-2,
				0,
				20
			]
		},
		{
			"mesh":5,
			"name":"fallBox"
		},
		{
			"mesh":6,
			"name":"ramps_collider",
			"scale":[
				4,
				0.25,
				4
			],
			"translation":[
				-16,
				8.5,
				-16
			]
		}
	],
	"materials":[
		{
			"doubleSided":true,
			"name":"edgeGlow",
			"pbrMetallicRoughness":{
				"baseColorTexture":{
					"index":0
				},
				"metallicFactor":0,
				"roughnessFactor":0.5
			}
		},
		{
			"doubleSided":true,
			"name":"Pirate",
			"pbrMetallicRoughness":{
				"baseColorTexture":{
					"index":1
				},
				"metallicFactor":0
			}
		}
	],
	"meshes":[
		{
			"name":"Plane",
			"primitives":[
				{
					"attributes":{
						"POSITION":0,
						"NORMAL":1,
						"TEXCOORD_0":2
					},
					"indices":3,
					"material":0
				}
			]
		},
		{
			"name":"Cube.004",
			"primitives":[
				{
					"attributes":{
						"POSITION":4,
						"NORMAL":5,
						"TEXCOORD_0":6
					},
					"indices":7,
					"material":0
				}
			]
		},
		{
			"name":"Cube.009",
			"primitives":[
				{
					"attributes":{
						"POSITION":8,
						"NORMAL":9,
						"TEXCOORD_0":10
					},
					"indices":11,
					"material":1
				}
			]
		},
		{
			"name":"Cube.010",
			"primitives":[
				{
					"attributes":{
						"POSITION":12,
						"NORMAL":13,
						"TEXCOORD_0":14
					},
					"indices":11,
					"material":1
				}
			]
		},
		{
			"name":"Cube.011",
			"primitives":[
				{
					"attributes":{
						"POSITION":15,
						"NORMAL":16,
						"TEXCOORD_0":17
					},
					"indices":11,
					"material":1
				}
			]
		},
		{
			"name":"Cube.012",
			"primitives":[
				{
					"attributes":{
						"POSITION":18,
						"NORMAL":19,
						"TEXCOORD_0":20
					},
					"indices":21,
					"material":0
				}
			]
		},
		{
			"name":"Cube.018",
			"primitives":[
				{
					"attributes":{
						"POSITION":22,
						"NORMAL":23,
						"TEXCOORD_0":24
					},
					"indices":7,
					"material":0
				}
			]
		}
	],
	"textures":[
		{
			"sampler":0,
			"source":0
		},
		{
			"sampler":0,
			"source":1
		}
	],
	"images":[
		{
			"mimeType":"image/png",
			"name":"edgeGlowTextureA",
			"uri":"edgeGlowTextureA.png"
		},
		{
			"mimeType":"image/png",
			"name":"PiratesPack_TX",
			"uri":"PiratesPack_TX.png"
		}
	],
	"accessors":[
		{
			"bufferView":0,
			"componentType":5126,
			"count":36,
			"max":[
				24,
				0,
				24
			],
			"min":[
				-24,
				0,
				-24
			],
			"type":"VEC3"
		},
		{
			"bufferView":1,
			"componentType":5126,
			"count":36,
			"type":"VEC3"
		},
		{
			"bufferView":2,
			"componentType":5126,
			"count":36,
			"type":"VEC2"
		},
		{
			"bufferView":3,
			"componentType":5123,
			"count":54,
			"type":"SCALAR"
		},
		{
			"bufferView":4,
			"componentType":5126,
			"count":226,
			"max":[
				4,
				13.5,
				4.000001907348633
			],
			"min":[
				-20.000001907348633,
				0,
				-20
			],
			"type":"VEC3"
		},
		{
			"bufferView":5,
			"componentType":5126,
			"count":226,
			"type":"VEC3"
		},
		{
			"bufferView":6,
			"componentType":5126,
			"count":226,
			"type":"VEC2"
		},
		{
			"bufferView":7,
			"componentType":5123,
			"count":336,
			"type":"SCALAR"
		},
		{
			"bufferView":8,
			"componentType":5126,
			"count":24,
			"max":[
				1,
				2,
				1
			],
			"min":[
				-1,
				0,
				-1
			],
			"type":"VEC3"
		},
		{
			"bufferView":9,
			"componentType":5126,
			"count":24,
			"type":"VEC3"
		},
		{
			"bufferView":10,
			"componentType":5126,
			"count":24,
			"type":"VEC2"
		},
		{
			"bufferView":11,
			"componentType":5123,
			"count":36,
			"type":"SCALAR"
		},
		{
			"bufferView":12,
			"componentType":5126,
			"count":24,
			"max":[
				1,
				2,
				1
			],
			"min":[
				-1,
				0,
				-1
			],
			"type":"VEC3"
		},
		{
			"bufferView":13,
			"componentType":5126,
			"count":24,
			"type":"VEC3"
		},
		{
			"bufferView":14,
			"componentType":5126,
			"count":24,
			"type":"VEC2"
		},
		{
			"bufferView":15,
			"componentType":5126,
			"count":24,
			"max":[
				1,
				2,
				1
			],
			"min":[
				-1,
				0,
				-1
			],
			"type":"VEC3"
		},
		{
			"bufferView":16,
			"componentType":5126,
			"count":24,
			"type":"VEC3"
		},
		{
			"bufferView":17,
			"componentType":5126,
			"count":24,
			"type":"VEC2"
		},
		{
			"bufferView":18,
			"componentType":5126,
			"count":184,
			"max":[
				-8,
				15.5,
				24
			],
			"min":[
				-24,
				0,
				3.999999761581421
			],
			"type":"VEC3"
		},
		{
			"bufferView":19,
			"componentType":5126,
			"count":184,
			"type":"VEC3"
		},
		{
			"bufferView":20,
			"componentType":5126,
			"count":184,
			"type":"VEC2"
		},
		{
			"bufferView":21,
			"componentType":5123,
			"count":276,
			"type":"SCALAR"
		},
		{
			"bufferView":22,
			"componentType":5126,
			"count":226,
			"max":[
				5,
				20,
				5.000000476837158
			],
			"min":[
				-1.0000003576278687,
				-34,
				-1
			],
			"type":"VEC3"
		},
		{
			"bufferView":23,
			"componentType":5126,
			"count":226,
			"type":"VEC3"
		},
		{
			"bufferView":24,
			"componentType":5126,
			"count":226,
			"type":"VEC2"
		}
	],
	"bufferViews":[
		{
			"buffer":0,
			"byteLength":432,
			"byteOffset":0,
			"target":34962
		},
		{
			"buffer":0,
			"byteLength":432,
			"byteOffset":432,
			"target":34962
		},
		{
			"buffer":0,
			"byteLength":288,
			"byteOffset":864,
			"target":34962
		},
		{
			"buffer":0,
			"byteLength":108,
			"byteOffset":1152,
			"target":34963
		},
		{
			"buffer":0,
			"byteLength":2712,
			"byteOffset":1260,
			"target":34962
		},
		{
			"buffer":0,
			"byteLength":2712,
			"byteOffset":3972,
			"target":34962
		},
		{
			"buffer":0,
			"byteLength":1808,
			"byteOffset":6684,
			"target":34962
		},
		{
			"buffer":0,
			"byteLength":672,
			"byteOffset":8492,
			"target":34963
		},
		{
			"buffer":0,
			"byteLength":288,
			"byteOffset":9164,
			"target":34962
		},
		{
			"buffer":0,
			"byteLength":288,
			"byteOffset":9452,
			"target":34962
		},
		{
			"buffer":0,
			"byteLength":192,
			"byteOffset":9740,
			"target":34962
		},
		{
			"buffer":0,
			"byteLength":72,
			"byteOffset":9932,
			"target":34963
		},
		{
			"buffer":0,
			"byteLength":288,
			"byteOffset":10004,
			"target":34962
		},
		{
			"buffer":0,
			"byteLength":288,
			"byteOffset":10292,
			"target":34962
		},
		{
			"buffer":0,
			"byteLength":192,
			"byteOffset":10580,
			"target":34962
		},
		{
			"buffer":0,
			"byteLength":288,
			"byteOffset":10772,
			"target":34962
		},
		{
			"buffer":0,
			"byteLength":288,
			"byteOffset":11060,
			"target":34962
		},
		{
			"buffer":0,
			"byteLength":192,
			"byteOffset":11348,
			"target":34962
		},
		{
			"buffer":0,
			"byteLength":2208,
			"byteOffset":11540,
			"target":34962
		},
		{
			"buffer":0,
			"byteLength":2208,
			"byteOffset":13748,
			"target":34962
		},
		{
			"buffer":0,
			"byteLength":1472,
			"byteOffset":15956,
			"target":34962
		},
		{
			"buffer":0,
			"byteLength":552,
			"byteOffset":17428,
			"target":34963
		},
		{
			"buffer":0,
			"byteLength":2712,
			"byteOffset":17980,
			"target":34962
		},
		{
			"buffer":0,
			"byteLength":2712,
			"byteOffset":20692,
			"target":34962
		},
		{
			"buffer":0,
			"byteLength":1808,
			"byteOffset":23404,
			"target":34962
		}
	],
	"samplers":[
		{
			"magFilter":9729,
			"minFilter":9987
		}
	],
	"buffers":[
		{
			"byteLength":25212,
			"uri":"triggerTestParts_testWorldA.bin"
		}
	]
}
